# xmcd
#
# Track frame offsets:
#	150
#	14500
#	27665
#	48857
#	61847
#	77875
#	89812
#	107845
#	122890
#	137900
#	154170
#	168587
#	184495
#	202862
#
# Disc length: 2902 seconds
#
# Revision: 1
# Processed by: cddbd v1.5.2PL0 Copyright (c) Steve Scherf et al.
# Submitted via: audiograbber 1.83.01
#
DISCID=c90b540e
DTITLE=Jamie Cutler Harper - Legacy of love
DYEAR=1999
DGENRE=Country
TTITLE0=Ruby's Gone Redneck
TTITLE1=She Has Been Set Free
TTITLE2=Something In Red
TTITLE3=Weekend Dad
TTITLE4=I Hear The Wind Blow
TTITLE5=Hold Onto Your Dreams
TTITLE6=Love At A Distance
TTITLE7=Hocus Pocus
TTITLE8=Best Part Of The Day
TTITLE9=A Woman Knows
TTITLE10=Every Moment We Steal
TTITLE11=If You're Gonna Go Out With Trash
TTITLE12=The Love I Found In You
TTITLE13=Old Brass Rail
EXTD=
EXTT0=
EXTT1=
EXTT2=
EXTT3=
EXTT4=
EXTT5=
EXTT6=
EXTT7=
EXTT8=
EXTT9=
EXTT10=
EXTT11=
EXTT12=
EXTT13=
PLAYORDER=
